<?xml version="1.0" encoding="UTF-8" standalone="no"?>
<svg
   xmlns:dc="http://purl.org/dc/elements/1.1/"
   xmlns:cc="http://creativecommons.org/ns#"
   xmlns:rdf="http://www.w3.org/1999/02/22-rdf-syntax-ns#"
   xmlns:svg="http://www.w3.org/2000/svg"
   xmlns="http://www.w3.org/2000/svg"
   xmlns:sodipodi="http://sodipodi.sourceforge.net/DTD/sodipodi-0.dtd"
   xmlns:inkscape="http://www.inkscape.org/namespaces/inkscape"
   inkscape:version="1.0 (4035a4fb49, 2020-05-01)"
   sodipodi:docname="animals-2015053102.svg"
   id="svg922"
   version="1.1"
   height="247"
   width="315">
  <metadata
     id="metadata928">
    <rdf:RDF>
      <cc:Work
         rdf:about="">
        <dc:format>image/svg+xml</dc:format>
        <dc:type
           rdf:resource="http://purl.org/dc/dcmitype/StillImage" />
      </cc:Work>
    </rdf:RDF>
  </metadata>
  <defs
     id="defs926" />
  <sodipodi:namedview
     inkscape:current-layer="svg922"
     inkscape:window-maximized="1"
     inkscape:window-y="-8"
     inkscape:window-x="1912"
     inkscape:cy="123.5"
     inkscape:cx="157.5"
     inkscape:zoom="1.968254"
     showgrid="false"
     id="namedview924"
     inkscape:window-height="1017"
     inkscape:window-width="1920"
     inkscape:pageshadow="2"
     inkscape:pageopacity="0"
     guidetolerance="10"
     gridtolerance="10"
     objecttolerance="10"
     borderopacity="1"
     bordercolor="#666666"
     pagecolor="#ffffff" />
  <path
     id="path474"
     d="m 234.9814,38.239281 0.43482,0.210692 z"
     style="fill:#b19b93;stroke:none;stroke-width:0.642333" />
  <path
     id="path476"
     d="m 229.97571,53.195453 c -4.94692,-6.440203 0.40088,-12.588824 8.48754,-12.588319 5.05857,3.16e-4 8.88318,3.398186 11.09908,7.532719 2.42221,-0.376326 3.79066,-0.829877 4.57021,-3.15975 l -3.26443,0.63195 c -3.7071,-10.525445 -20.48761,-9.35937 -25.68916,-0.607052 -2.30795,3.883018 -0.2716,9.273805 4.79676,8.190452 z"
     style="fill:#613323;stroke:none;stroke-width:0.642333" />
  <path
     id="path478"
     d="m 242.16316,38.239281 0.43482,0.210692 z"
     style="fill:#c6b6b0;stroke:none;stroke-width:0.642333" />
  <path
     id="path482"
     d="m 229.97571,39.924502 0.65289,0.63195 z"
     style="fill:#bca9a2;stroke:none;stroke-width:0.642333" />
  <path
     id="path484"
     d="m 246.29789,39.924502 0.65289,0.63195 z"
     style="fill:#b19b93;stroke:none;stroke-width:0.642333" />
  <path
     id="path488"
     d="m 227.36417,51.299603 13.05774,-3.15975 v 2.5278 h 0.65289 v -1.89585 c 3.51775,1.628409 4.87445,1.239444 8.48753,0 -2.52928,-12.134958 -25.16031,-9.989867 -22.19816,2.5278 z"
     style="fill:#d7a55f;stroke:none;stroke-width:0.642333" />
  <path
     id="path492"
     d="m 227.36417,41.820352 0.65288,0.63195 -0.65288,-0.63195 m -1.30578,1.2639 0.65289,0.63195 z"
     style="fill:#a79088;stroke:none;stroke-width:0.642333" />
  <path
     id="path496"
     d="m 254.13254,44.348153 v 0.63195 h 3.91732 z"
     style="fill:#d0c2bd;stroke:none;stroke-width:0.642333" />
  <path
     id="path498"
     d="m 251.30358,45.190732 0.43482,0.210692 z"
     style="fill:#c6b6b0;stroke:none;stroke-width:0.642333" />
  <path
     id="path500"
     d="m 254.13254,44.980103 -0.65289,2.5278 h 4.57021 v -0.63195 z"
     style="fill:#8b5c38;stroke:none;stroke-width:0.642333" />
  <path
     id="path502"
     d="m 254.78543,44.980103 v 1.89585 c 4.00742,0.338662 8.11343,1.632959 10.9783,4.489942 1.50947,1.505495 2.47444,4.531714 4.36128,5.537905 1.75627,0.93636 4.41874,-0.562436 6.2057,-0.885046 3.09534,-0.558834 6.05944,0.101112 9.14042,0.33645 -2.09316,-5.040181 -8.8649,-1.130306 -12.92064,-2.384411 -2.34125,-0.723962 -3.57848,-4.002582 -5.42092,-5.496449 -3.58501,-2.906022 -7.84183,-3.482234 -12.34414,-3.494241 z"
     style="fill:#613323;stroke:none;stroke-width:0.642333" />
  <path
     id="path504"
     d="m 260.444,45.190732 0.43482,0.210692 z"
     style="fill:#c6b6b0;stroke:none;stroke-width:0.642333" />
  <path
     id="path506"
     d="m 241.0748,50.667653 h -0.65289 v -2.5278 l -11.75197,3.15975 v 0.63195 c 2.7245,-0.0073 10.81442,-2.636116 12.29256,0.274014 1.36258,2.682375 -5.58219,9.995554 -7.07142,12.364988 -7.66686,12.200238 -22.05584,16.42691 -22.19621,32.861403 h 0.65289 l 4.57021,-15.166801 h 0.65289 v 3.15975 h 0.65288 c 3.62549,-4.878022 9.25533,-7.592248 15.01641,-9.479251 -2.37782,-10.617014 12.77243,-23.770928 21.54528,-27.805803 z"
     style="fill:#c3894b;stroke:none;stroke-width:0.642333" />
  <path
     id="path508"
     d="m 233.24015,75.945656 c -5.5861,1.281595 -12.44272,4.247968 -15.01641,9.479251 h -0.65288 v -3.15975 h -0.65289 c -0.1358,5.598445 -4.10927,9.714968 -4.94301,15.166801 -1.12623,7.364112 4.16542,18.816312 13.43054,16.813662 5.91124,-1.27717 10.84903,-7.76856 12.81487,-13.02196 1.7517,-4.680855 -5.68011,-10.709027 -6.47337,-15.798753 -0.58695,-3.764526 2.60893,-6.213333 6.06336,-7.180217 6.57915,-1.840744 21.19141,2.963214 21.25017,10.971918 0.0496,6.830116 -11.24663,9.881803 -16.67996,10.111201 0,6.507191 -1.17585,13.856141 2.69838,19.580971 6.68165,9.87549 20.83494,3.67795 25.16228,-5.04612 3.23114,-6.51414 3.61634,-13.956617 1.49184,-20.854352 -0.91404,-2.966374 -3.14495,-5.788663 -3.5739,-8.847301 -0.4185,-2.982172 1.29402,-6.499607 1.72754,-9.479251 0.36692,-2.516109 0.24287,-12.782581 3.27358,-13.272405 8.15325,-1.317806 1.90839,14.178369 10.34238,13.002752 5.2107,-0.7263 6.0366,-9.814185 4.94954,-13.632743 -2.62722,-9.235192 -12.43489,-2.061864 -17.8186,-4.047198 -4.8849,-1.8015 -5.12451,-8.371063 -11.93086,-9.104821 -10.64989,-1.148 -28.47829,18.153461 -25.4626,28.318315 z"
     style="fill:#d7a55f;stroke:none;stroke-width:0.642333" />
  <path
     id="path510"
     d="m 265.88451,47.507903 0.65289,0.63195 z"
     style="fill:#b19b93;stroke:none;stroke-width:0.642333" />
  <path
     id="path512"
     d="m 155.54657,58.251054 2.19292,15.798752 3.40703,8.837822 -4.94706,5.721676 -10.4462,11.350455 c -0.85228,-6.388384 -4.64111,-18.20269 -11.75197,-20.222403 0.76793,5.561161 6.12461,10.429704 8.20993,15.798752 3.75861,9.676422 0.76433,20.058732 4.79741,29.701652 2.05183,4.90583 5.89375,9.43944 11.80238,8.21535 l -0.65289,10.74315 c -12.65863,-4.17213 -20.11186,-14.38381 -21.43396,-27.17385 -0.63872,-6.17921 0.77987,-12.35526 -1.45235,-18.326551 -1.77931,-4.759848 -4.21125,-9.223312 -7.36816,-13.270952 -1.08862,-1.395978 -3.74848,-3.562302 -3.30929,-5.543466 0.87363,-3.93964 6.88555,-0.256572 8.75405,0.487866 l 0.65288,-2.527801 c -3.74058,-1.840744 -14.71999,-4.418152 -12.18725,3.791701 0.4612,1.495194 3.76945,6.794095 5.00549,5.0556 h 0.65289 c 0.3903,6.985576 6.07525,12.978359 6.99484,20.222403 1.40762,11.08756 -1.76665,21.3043 -1.77174,32.22945 -0.002,5.37916 -7.29954,12.33504 -3.05688,16.85474 5.38573,5.73811 17.1565,6.77767 24.60216,7.94678 2.43892,0.38296 6.62621,1.49961 8.99384,0.67049 4.94269,-1.73091 0.90132,-8.18628 7.98122,-8.40936 l 1.30578,7.58341 h -0.65289 l -1.30577,-6.3195 h -3.26444 l -1.95866,7.5834 24.80971,0.63195 10.18896,-0.64965 2.86879,-7.5657 h -5.87599 c -2.0481,-15.68753 13.51085,-22.94864 27.42127,-25.65718 4.36651,-0.8506 11.18004,0.3659 14.36352,-2.78058 -4.71059,-1.34795 -22.23408,-1.38334 -23.50394,4.42365 l -3.26444,-1.89585 -6.52887,4.42365 c 0,-5.47016 2.44114,-18.45104 -3.26444,-21.4863 l -0.65289,0.63195 c 2.12972,9.01414 5.16695,24.8388 -6.58763,29.50385 -2.96345,1.17606 -7.28557,-0.30523 -10.38743,-0.43415 5.63311,-9.05774 9.39896,-22.10814 -5.87599,-22.11825 v 1.89585 c 1.5382,0.0316 3.10905,0.0139 4.56891,0.56496 11.45882,4.32381 -1.64202,15.94979 -3.26313,21.55329 l 14.36351,1.2639 c 6.6e-4,6.34668 2.91515,11.97672 -3.26443,16.43071 l 3.26443,-6.3195 c -14.7213,0 -36.5876,-0.98711 -34.48915,-20.85436 0.23947,-2.26743 0.61397,-6.10906 1.95918,-8.01439 1.74948,-2.47851 7.57532,-1.7189 10.32202,-3.44476 7.4514,-4.68212 8.49732,-13.62358 8.49732,-21.40225 7.58133,1.74734 14.30215,-1.98496 20.89239,-5.055601 l 8.53977,22.750201 3.86509,10.1112 c -0.0215,-7.63332 -2.25964,-15.65403 -5.0997,-22.7502 -1.65833,-4.14243 -5.30145,-8.75061 -4.69361,-13.270952 l 2.61155,0.63195 c -1.17585,-3.554087 -0.0653,-8.312671 3.91732,-9.479251 -4.04398,12.033593 -1.34886,32.877203 16.32219,29.701653 l 5.87598,5.0556 -3.91732,-6.3195 c 4.52842,-2.27376 7.64139,-6.33972 9.79331,-10.74315 h 0.65288 l 1.95866,15.1668 h -7.83464 c 0.9493,5.50681 6.17305,1.3726 9.79331,2.64534 2.83744,0.99785 4.74649,3.40874 7.83464,4.05965 8.90016,1.87563 18.88868,-4.97218 21.54528,-13.02449 h 0.65289 l 3.91732,10.74315 h 0.65289 l -3.33299,-15.1668 -0.36823,-13.902902 -3.76716,-11.375101 2.24528,-16.430702 c 4.02048,3.422199 3.506,9.653733 10.44358,9.441713 6.74433,-0.206142 10.76416,-12.728991 5.22571,-16.393164 0.66203,3.502963 -0.61175,16.545654 -7.15303,13.752687 -2.57694,-1.100162 -5.64747,-12.966794 -9.82987,-8.315262 -1.90447,2.118297 -1.62177,7.063938 -2.03831,9.729377 -0.45115,2.886748 -2.02199,5.904309 -1.706,8.847301 0.33232,3.097187 2.52798,5.911261 3.51711,8.847301 2.21002,6.55585 1.88488,13.286752 -0.99043,19.590452 -3.21417,7.04814 -13.70737,14.99934 -21.61579,9.60311 -4.96521,-3.38788 -6.53345,-9.11272 -7.08057,-14.65871 -1.22351,-12.390645 12.43816,-6.35805 16.80532,-15.823398 1.81633,-3.937681 -1.30838,-7.84566 -4.53691,-10.020201 -6.36369,-4.286517 -13.90128,-4.708849 -20.86693,-1.962205 l 0.65289,3.159751 c 5.49927,-3.655831 22.14071,-2.933512 22.36008,6.318869 0.19456,8.195128 -13.96591,7.565074 -18.44276,5.688182 l -0.65289,0.63195 c 4.07467,10.734302 -13.00355,25.762712 -21.78162,13.902272 -6.85793,-9.26565 -3.63985,-23.076923 4.36651,-30.757012 2.69447,-2.585118 6.68426,-3.536582 9.31017,-6.141733 2.84594,-2.823806 4.64725,-7.171496 6.83442,-10.496881 1.64528,-2.501637 5.29623,-5.722497 5.54628,-8.778544 0.46355,-5.67428 -9.88145,-0.682886 -11.45752,1.195144 l 8.48754,-1.263901 c -2.54757,4.328732 -7.72692,15.539779 -12.47276,17.569287 -4.06945,1.740011 -14.09126,-1.138585 -18.86583,-1.138585 l -2.61155,-19.590452 c -6.74106,1.298468 -11.09582,7.968322 -17.62795,9.788907 -11.3511,3.163542 -20.21208,-1.081456 -31.33859,-1.573556 z"
     style="fill:#613323;stroke:none;stroke-width:0.642333" />
  <path
     id="path514"
     d="m 204.73052,51.720924 0.21807,0.421258 z"
     style="fill:#8f6f64;stroke:none;stroke-width:0.642333" />
  <path
     id="path516"
     d="m 229.32283,51.931553 -1.30578,1.895851 v 0.63195 l 3.91733,-2.527801 z"
     style="fill:#745144;stroke:none;stroke-width:0.642333" />
  <path
     id="path518"
     d="m 205.38341,53.616775 0.21807,0.421258 z"
     style="fill:#987c71;stroke:none;stroke-width:0.642333" />
  <path
     id="path520"
     d="m 236.28717,53.406082 0.43483,0.210693 z"
     style="fill:#d0c2bd;stroke:none;stroke-width:0.642333" />
  <path
     id="path522"
     d="m 275.67782,53.195453 v 0.631951 h 2.61155 z"
     style="fill:#a1887e;stroke:none;stroke-width:0.642333" />
  <path
     id="path524"
     d="m 278.28937,53.195453 v 0.631951 h 5.2231 z"
     style="fill:#7d5c51;stroke:none;stroke-width:0.642333" />
  <path
     id="path526"
     d="m 192.76114,66.466405 -19.58661,-2.142058 -15.01641,-2.913543 8.09358,14.559751 1.69973,15.141903 5.87598,-0.63195 -4.57021,2.5278 c 1.753,3.351231 3.82723,2.81281 6.52887,0.63195 l 0.65289,0.63195 -2.61155,3.791701 c 3.7763,1.746078 10.09886,-0.495449 8.67818,-5.630676 -0.57585,-2.083539 -3.61373,-3.338592 -3.10121,-5.743794 0.9062,-4.253656 7.60678,-5.3602 10.63814,-2.83556 4.38087,3.646984 -4.24181,7.534741 1.44158,12.065191 3.96367,3.159118 7.58393,1.983691 11.07035,-1.014912 v -0.63195 l -6.52887,-5.687551 7.83465,4.423651 1.95866,-6.319501 h -8.48754 v -1.89585 h 9.14042 l -2.36149,-12.007051 -0.90294,-18.958502 c -4.63877,1.380747 -9.0229,8.314756 -10.4462,12.639001 z"
     style="fill:#f7b12b;stroke:none;stroke-width:0.642333" />
  <path
     id="path528"
     d="m 233.67563,54.038033 0.43482,0.210692 z"
     style="fill:#bca9a2;stroke:none;stroke-width:0.642333" />
  <path
     id="path530"
     d="m 273.50175,54.038033 0.43482,0.210692 z"
     style="fill:#987c71;stroke:none;stroke-width:0.642333" />
  <path
     id="path532"
     d="m 285.25372,54.038033 0.43482,0.210692 z"
     style="fill:#c6b6b0;stroke:none;stroke-width:0.642333" />
  <path
     id="path534"
     d="m 284.81824,54.459354 c 0.61763,1.756252 5.50515,9.562731 6.52887,5.0556 -2.48423,-0.676123 -4.22679,-2.556111 -4.57021,-5.0556 z"
     style="fill:#745144;stroke:none;stroke-width:0.642333" />
  <path
     id="path536"
     d="m 181.00917,62.042754 v 0.631951 l 9.79331,0.63195 v 0.63195 l -2.61155,0.63195 4.57021,1.89585 7.83465,-11.375101 c -7.53889,2.765792 -11.04489,6.95145 -19.58662,6.95145 z"
     style="fill:#e69a07;stroke:none;stroke-width:0.642333" />
  <path
     id="path538"
     d="m 286.12402,55.091304 4.57021,5.0556 c -0.58042,-2.775019 -1.7282,-4.264272 -4.57021,-5.0556 z"
     style="fill:#613323;stroke:none;stroke-width:0.642333" />
  <path
     id="path540"
     d="m 236.50459,55.723254 0.65288,0.63195 z"
     style="fill:#b3a19b;stroke:none;stroke-width:0.642333" />
  <path
     id="path542"
     d="m 155.98185,57.829733 0.43522,0.210692 z"
     style="fill:#a1887e;stroke:none;stroke-width:0.642333" />
  <path
     id="path544"
     d="m 154.89368,58.251054 v 5.055601 h 0.65289 z"
     style="fill:#d4cbc8;stroke:none;stroke-width:0.642333" />
  <path
     id="path546"
     d="m 206.68919,58.672375 0.21806,0.421258 -0.21806,-0.421258 m -45.48424,0.421258 0.43521,0.210692 z"
     style="fill:#a1887e;stroke:none;stroke-width:0.642333" />
  <path
     id="path550"
     d="m 164.46938,59.725583 0.43522,0.210692 z"
     style="fill:#c6b6b0;stroke:none;stroke-width:0.642333" />
  <path
     id="path552"
     d="m 180.35629,59.514954 v 0.63195 h 7.83464 z"
     style="fill:#7d5c51;stroke:none;stroke-width:0.642333" />
  <path
     id="path554"
     d="m 167.08113,60.357533 0.43482,0.210692 z"
     style="fill:#c6b6b0;stroke:none;stroke-width:0.642333" />
  <path
     id="path556"
     d="m 157.50523,62.042754 1.95866,-0.63195 z"
     style="fill:#b77939;stroke:none;stroke-width:0.642333" />
  <path
     id="path558"
     d="m 169.69268,60.989483 0.43482,0.210692 z"
     style="fill:#c6b6b0;stroke:none;stroke-width:0.642333" />
  <path
     id="path560"
     d="m 204.51311,60.778854 v 8.215351 h 0.65289 z"
     style="fill:#c58627;stroke:none;stroke-width:0.642333" />
  <path
     id="path562"
     d="m 271.10761,65.202505 c 3.53669,-0.704435 5.36477,0.516682 6.52887,3.7917 2.55018,-5.897863 -6.26445,-11.58573 -6.52887,-3.7917 z"
     style="fill:#c3894b;stroke:none;stroke-width:0.642333" />
  <path
     id="path564"
     d="m 172.30423,61.621433 0.43482,0.210693 z"
     style="fill:#bca9a2;stroke:none;stroke-width:0.642333" />
  <path
     id="path566"
     d="m 207.12466,61.410804 v 8.215351 h 5.2231 v -0.63195 h -4.57021 z"
     style="fill:#a1887e;stroke:none;stroke-width:0.642333" />
  <path
     id="path568"
     d="m 288.73556,61.410804 v 4.423651 h 0.65289 z"
     style="fill:#a36a26;stroke:none;stroke-width:0.642333" />
  <path
     id="path570"
     d="m 291.34711,61.410804 v 4.423651 H 292 Z"
     style="fill:#bca9a2;stroke:none;stroke-width:0.642333" />
  <path
     id="path572"
     d="m 158.15812,62.042754 5.41955,18.326553 2.4151,12.007051 3.26443,-0.63195 v -0.63195 l -2.8191,-15.141903 -4.92838,-6.346864 z"
     style="fill:#e69a07;stroke:none;stroke-width:0.642333" />
  <path
     id="path574"
     d="m 249.56233,67.730305 c 2.96084,-7.934828 -6.42898,-4.213211 0,0 z"
     style="fill:#ffffff;stroke:none;stroke-width:0.642333" />
  <path
     id="path576"
     d="m 177.09185,63.306655 v 0.63195 h 13.71063 z"
     style="fill:#db9f27;stroke:none;stroke-width:0.642333" />
  <path
     id="path578"
     d="m 230.6286,64.570555 0.65289,0.63195 z"
     style="fill:#b3a19b;stroke:none;stroke-width:0.642333" />
  <path
     id="path580"
     d="m 155.54657,65.202505 v 1.89585 h 0.65289 z"
     style="fill:#8f6f64;stroke:none;stroke-width:0.642333" />
  <path
     id="path582"
     d="m 245.64501,65.202505 1.95866,1.2639 v -0.63195 z"
     style="fill:#d4cbc8;stroke:none;stroke-width:0.642333" />
  <path
     id="path584"
     d="m 245.84022,67.152956 c -2.14343,1.220042 -0.99435,5.144895 1.4925,3.682499 2.11797,-1.245637 1.08706,-5.150646 -1.4925,-3.682499 z"
     style="fill:#613323;stroke:none;stroke-width:0.642333" />
  <path
     id="path586"
     d="m 260.66141,72.153956 c 3.7528,-7.598568 -6.92909,-4.541194 0,0 z"
     style="fill:#ffffff;stroke:none;stroke-width:0.642333" />
  <path
     id="path588"
     d="m 273.06627,67.098355 v 1.89585 h 0.65289 z"
     style="fill:#bca9a2;stroke:none;stroke-width:0.642333" />
  <path
     id="path590"
     d="m 290.91164,67.519676 0.21806,0.421258 z"
     style="fill:#b19b93;stroke:none;stroke-width:0.642333" />
  <path
     id="path592"
     d="m 180.35629,69.626155 v 0.63195 l 15.0164,0.63195 c -4.11058,-3.475788 -10.18896,-2.745191 -15.0164,-1.2639 z"
     style="fill:#e4b151;stroke:none;stroke-width:0.642333" />
  <path
     id="path594"
     d="m 275.24234,69.415526 0.21807,0.421258 z"
     style="fill:#bca9a2;stroke:none;stroke-width:0.642333" />
  <path
     id="path596"
     d="m 156.41707,70.047476 0.21767,0.421258 z"
     style="fill:#c6b6b0;stroke:none;stroke-width:0.642333" />
  <path
     id="path598"
     d="m 216.91797,69.626155 v 0.63195 h 1.95866 z"
     style="fill:#b3a19b;stroke:none;stroke-width:0.642333" />
  <path
     id="path600"
     d="m 256.9615,70.047476 0.21807,0.421258 z"
     style="fill:#d4cbc8;stroke:none;stroke-width:0.642333" />
  <path
     id="path602"
     d="m 290.25875,70.047476 0.21806,0.421258 z"
     style="fill:#d0c2bd;stroke:none;stroke-width:0.642333" />
  <path
     id="path604"
     d="m 220.83529,70.258105 v 0.63195 h 1.95866 z"
     style="fill:#b19b93;stroke:none;stroke-width:0.642333" />
  <path
     id="path606"
     d="m 243.03346,70.258105 c 0.42568,2.471431 1.39457,2.970039 3.91732,3.159751 z"
     style="fill:#ffffff;stroke:none;stroke-width:0.642333" />
  <path
     id="path608"
     d="m 257.83245,70.468734 0.43483,0.210693 z"
     style="fill:#a79088;stroke:none;stroke-width:0.642333" />
  <path
     id="path610"
     d="m 204.07764,71.311377 0.21806,0.421258 z"
     style="fill:#b0731d;stroke:none;stroke-width:0.642333" />
  <path
     id="path612"
     d="m 224.09973,70.890055 v 0.631951 h 2.61155 z"
     style="fill:#d4cbc8;stroke:none;stroke-width:0.642333" />
  <path
     id="path614"
     d="m 256.9393,71.576606 c -2.14343,1.220043 -0.99434,5.144895 1.4925,3.682499 2.11797,-1.245636 1.08706,-5.150709 -1.4925,-3.682499 z"
     style="fill:#613323;stroke:none;stroke-width:0.642333" />
  <path
     id="path616"
     d="m 206.47177,71.522006 2.61155,13.902901 2.61155,0.63195 10.4462,-12.639001 z"
     style="fill:#d7a55f;stroke:none;stroke-width:0.642333" />
  <path
     id="path618"
     d="m 213.00065,71.522006 v 0.63195 h 2.61155 z"
     style="fill:#8b5c38;stroke:none;stroke-width:0.642333" />
  <path
     id="path620"
     d="m 245.64501,71.522006 v 0.63195 l 1.95866,0.63195 z"
     style="fill:#dfd3d1;stroke:none;stroke-width:0.642333" />
  <path
     id="path622"
     d="m 272.41338,71.522006 v 1.89585 h 0.65289 z"
     style="fill:#b3a19b;stroke:none;stroke-width:0.642333" />
  <path
     id="path624"
     d="m 244.33923,73.417856 v 0.63195 h 1.95866 z"
     style="fill:#ebd2b0;stroke:none;stroke-width:0.642333" />
  <path
     id="path626"
     d="m 190.14959,74.049806 v 0.63195 h 1.95867 z"
     style="fill:#b0731d;stroke:none;stroke-width:0.642333" />
  <path
     id="path628"
     d="m 254.78543,74.049806 c 0.21153,2.629986 1.93581,4.827466 3.91732,1.89585 z"
     style="fill:#ffffff;stroke:none;stroke-width:0.642333" />
  <path
     id="path630"
     d="m 189.49671,74.681756 v 1.89585 l 8.48753,3.15975 c -1.19478,-4.073423 -4.45073,-4.97193 -8.48753,-5.0556 z"
     style="fill:#613323;stroke:none;stroke-width:0.642333" />
  <path
     id="path632"
     d="m 271.7605,74.681756 v 1.89585 h 0.65288 z"
     style="fill:#987c71;stroke:none;stroke-width:0.642333" />
  <path
     id="path634"
     d="m 287.42979,74.681756 0.65289,0.63195 z"
     style="fill:#a79088;stroke:none;stroke-width:0.642333" />
  <path
     id="path636"
     d="m 129.21347,75.524335 0.43522,0.210692 z"
     style="fill:#d0c2bd;stroke:none;stroke-width:0.642333" />
  <path
     id="path638"
     d="m 254.34995,75.735027 0.21807,0.421258 z"
     style="fill:#ebd2b0;stroke:none;stroke-width:0.642333" />
  <path
     id="path642"
     d="m 123.5551,75.945656 0.65288,0.63195 z"
     style="fill:#a79088;stroke:none;stroke-width:0.642333" />
  <path
     id="path644"
     d="m 171.86875,83.529057 h 1.30578 l 5.87598,-6.951451 c -4.16738,0.220803 -8.03051,2.493043 -7.18176,6.951451 z"
     style="fill:#613323;stroke:none;stroke-width:0.642333" />
  <path
     id="path646"
     d="m 281.5538,76.577606 v 0.63195 h 3.26444 z"
     style="fill:#987c71;stroke:none;stroke-width:0.642333" />
  <path
     id="path648"
     d="m 132.69552,77.209556 0.65289,0.63195 z"
     style="fill:#b3a19b;stroke:none;stroke-width:0.642333" />
  <path
     id="path650"
     d="m 128.12531,86.056857 3.91732,-0.63195 3.26444,-1.89585 c -5.36922,-7.356594 -15.47689,-6.222812 -7.18176,2.5278 z"
     style="fill:#b77939;stroke:none;stroke-width:0.642333" />
  <path
     id="path652"
     d="m 159.46389,77.841506 0.65289,0.63195 z"
     style="fill:#a79088;stroke:none;stroke-width:0.642333" />
  <path
     id="path654"
     d="m 134.00129,78.473456 -0.65288,3.159751 1.95866,-2.527801 z"
     style="fill:#7d5c51;stroke:none;stroke-width:0.642333" />
  <path
     id="path656"
     d="m 271.32502,78.894967 0.21806,0.420879 z"
     style="fill:#bca9a2;stroke:none;stroke-width:0.642333" />
  <path
     id="path660"
     d="m 120.94355,79.105406 v 2.527801 h 0.65289 z"
     style="fill:#bca9a2;stroke:none;stroke-width:0.642333" />
  <path
     id="path662"
     d="m 208.43044,79.737356 v 5.687551 h 0.65288 z"
     style="fill:#8f6f64;stroke:none;stroke-width:0.642333" />
  <path
     id="path664"
     d="m 232.58726,80.369307 -0.65288,7.5834 c 2.59718,-1.776411 2.32884,-5.208532 0.65288,-7.5834 z"
     style="fill:#7d5c51;stroke:none;stroke-width:0.642333" />
  <path
     id="path666"
     d="m 238.46325,93.640258 c -0.7691,-7.428573 -3.46879,-12.546737 7.18176,-12.639001 -10.34957,-4.203543 -15.06668,6.079359 -7.18176,12.639001 z"
     style="fill:#94532a;stroke:none;stroke-width:0.642333" />
  <path
     id="path668"
     d="m 235.8517,95.536108 c 3.1208,0.405712 5.98306,2.092387 9.14042,1.41936 2.20872,-0.470803 4.51863,-1.128031 6.52887,-2.138519 13.50693,-6.78904 -6.69601,-19.06922 -13.96983,-11.938801 -3.40546,3.337961 1.76149,8.542069 -1.69946,12.65796 z"
     style="fill:#a96737;stroke:none;stroke-width:0.642333" />
  <path
     id="path670"
     d="m 231.93438,81.633207 v 5.68755 h 0.65288 z"
     style="fill:#613323;stroke:none;stroke-width:0.642333" />
  <path
     id="path672"
     d="m 122.90221,83.529057 0.65289,0.63195 z"
     style="fill:#a79088;stroke:none;stroke-width:0.642333" />
  <path
     id="path674"
     d="m 132.04263,85.424907 -3.26443,-0.63195 7.83464,24.646053 c 7.20474,-5.19337 3.3864,-10.176924 -0.65289,-15.798752 3.32398,3.246328 7.44057,7.100592 4.92486,12.007052 -1.36035,2.65356 -4.12983,4.39584 -4.17475,7.5834 -0.10936,7.76667 4.83783,15.93778 9.0432,22.11825 l -2.61155,-0.63195 v 0.63195 l 14.36352,6.3195 0.65289,-6.95145 c -18.5924,-5.82215 -10.69534,-26.56402 -15.9232,-39.812852 -1.31909,-3.343016 -2.88903,-7.557491 -5.67646,-10.041055 -1.76815,-1.575451 -3.97661,-1.873731 -4.51583,0.561804 z"
     style="fill:#f7b12b;stroke:none;stroke-width:0.642333" />
  <path
     id="path676"
     d="m 181.00917,86.688807 v 0.63195 c 3.73843,3.202723 6.76718,2.984069 8.48754,-1.89585 -3.33038,-0.765291 -5.60373,-0.578866 -8.48754,1.2639 z"
     style="fill:#a96737;stroke:none;stroke-width:0.642333" />
  <path
     id="path678"
     d="m 191.45537,84.792957 v 2.5278 h 0.65289 z"
     style="fill:#8b5c38;stroke:none;stroke-width:0.642333" />
  <path
     id="path680"
     d="m 197.33135,84.792957 v 0.63195 h 5.87599 v 0.63195 h -5.87599 v 0.63195 l 9.14042,-1.2639 z"
     style="fill:#94532a;stroke:none;stroke-width:0.642333" />
  <path
     id="path682"
     d="m 139.87728,85.424907 0.65288,0.63195 z"
     style="fill:#b19b93;stroke:none;stroke-width:0.642333" />
  <path
     id="path684"
     d="m 159.46389,85.424907 0.65289,0.63195 z"
     style="fill:#bca9a2;stroke:none;stroke-width:0.642333" />
  <path
     id="path686"
     d="m 179.05051,85.424907 c -0.42046,2.499363 0.32449,3.828354 2.61155,5.055601 z"
     style="fill:#745144;stroke:none;stroke-width:0.642333" />
  <path
     id="path688"
     d="m 197.33135,85.424907 v 0.63195 h 5.87599 l -5.87599,-0.63195 m 36.56169,0.63195 c -1.68837,3.569886 -0.34603,7.031709 3.26443,8.847301 l 0.65289,-0.63195 z"
     style="fill:#613323;stroke:none;stroke-width:0.642333" />
  <path
     id="path690"
     d="m 126.81953,86.688807 v 2.527801 h 0.65289 z"
     style="fill:#7d5c51;stroke:none;stroke-width:0.642333" />
  <path
     id="path692"
     d="m 207.12466,96.168058 -2.61155,-0.63195 c -1.07269,4.298525 2.53451,8.717122 4.17587,12.639002 3.02548,7.23014 5.54954,15.54597 5.61744,23.38215 8.5143,-0.71852 16.05058,-4.54625 24.80972,-2.5278 -10.29016,7.16442 -31.01933,3.71587 -35.70967,18.9585 -0.93559,3.03968 -0.44919,5.7735 -0.19913,8.84731 h 0.65289 l 1.30577,-10.11121 h 1.30577 v 10.74316 h 4.57021 c 0.003,-3.52186 -0.29706,-6.9919 3.26444,-8.84731 l -0.65289,8.84731 c 16.12828,-0.12892 33.22021,-1.58746 48.96655,-5.04865 4.93452,-1.08506 13.31302,-2.45197 16.11456,-7.07532 5.01287,-8.27222 -1.8653,-24.25171 -5.01548,-32.11254 h -0.65289 c -4.64856,9.45903 -19.53634,22.87343 -29.37992,11.3751 -3.03332,0.43984 -6.02811,2.13789 -9.14043,1.75114 -3.59349,-0.44679 -5.22962,-3.26782 -8.11147,-4.89635 -3.29512,-1.8611 -6.92648,-1.6772 -10.11061,-4.2366 -9.21485,-7.40708 -7.64596,-20.64391 -5.28186,-30.535193 -4.15889,0.669867 -5.63506,6.096423 -3.91732,9.479251 z"
     style="fill:#d7a55f;stroke:none;stroke-width:0.642333" />
  <path
     id="path694"
     d="m 161.42256,87.320757 c -4.93583,4.572791 -13.01923,10.309634 -14.74285,17.062653 -0.77935,3.05358 0.31339,6.38649 0.37933,9.47925 h 0.65288 l 3.26444,-9.47925 c 2.24737,-1.19439 3.20391,-2.5733 3.26444,-5.055601 3.17832,-1.683515 9.28138,-8.503521 7.18176,-12.007052 z"
     style="fill:#c3894b;stroke:none;stroke-width:0.642333" />
  <path
     id="path696"
     d="m 196.46105,88.795097 0.43483,0.211071 z"
     style="fill:#a36a26;stroke:none;stroke-width:0.642333" />
  <path
     id="path698"
     d="m 162.07544,89.848558 -7.83464,9.479251 -3.26444,5.055601 c -0.2306,3.63498 -3.1351,6.49202 -3.69312,10.1112 -1.12519,7.29713 3.87325,16.3574 11.52777,17.6946 0.53412,-6.33024 -1.78578,-8.5882 -3.01706,-14.53485 -1.67511,-8.08959 2.51081,-16.50527 9.54593,-20.854352 l -0.65289,-2.5278 -3.91732,0.63195 3.26443,-1.89585 z"
     style="fill:#d7a55f;stroke:none;stroke-width:0.642333" />
  <path
     id="path700"
     d="m 273.28368,90.270068 0.21807,0.420879 z"
     style="fill:#8f6f64;stroke:none;stroke-width:0.642333" />
  <path
     id="path702"
     d="m 181.66206,90.480508 1.30577,2.5278 1.95867,-0.63195 v -0.63195 z"
     style="fill:#7d5c51;stroke:none;stroke-width:0.642333" />
  <path
     id="path704"
     d="m 128.7782,91.744408 0.65288,0.63195 z"
     style="fill:#b3a19b;stroke:none;stroke-width:0.642333" />
  <path
     id="path706"
     d="m 273.93657,92.165918 0.21806,0.420879 z"
     style="fill:#987c71;stroke:none;stroke-width:0.642333" />
  <path
     id="path708"
     d="m 167.95143,93.008308 c -0.17498,2.917081 1.832,5.611717 4.57021,3.15975 l -3.26444,-3.15975 h -1.30577 m 17.62795,0 -1.95866,5.055601 5.87599,-0.631951 z"
     style="fill:#e69a07;stroke:none;stroke-width:0.642333" />
  <path
     id="path710"
     d="m 135.95995,93.640258 4.84475,8.215352 -4.19186,8.8473 c 7.10263,-4.95954 6.19244,-12.35336 -0.65289,-17.062652 z"
     style="fill:#e4b151;stroke:none;stroke-width:0.642333" />
  <path
     id="path712"
     d="m 274.58946,94.693719 0.21806,0.420879 z"
     style="fill:#a1887e;stroke:none;stroke-width:0.642333" />
  <path
     id="path714"
     d="m 149.67059,94.904158 0.65288,0.63195 z"
     style="fill:#a79088;stroke:none;stroke-width:0.642333" />
  <path
     id="path716"
     d="m 219.52952,95.536108 v 1.2639 h 3.26443 v -1.2639 z"
     style="fill:#a96737;stroke:none;stroke-width:0.642333" />
  <path
     id="path718"
     d="m 145.31798,97.221519 0.21768,0.420879 z"
     style="fill:#987c71;stroke:none;stroke-width:0.642333" />
  <path
     id="path720"
     d="m 275.02493,96.800008 v 2.527801 h 0.65289 z"
     style="fill:#b19b93;stroke:none;stroke-width:0.642333" />
  <path
     id="path722"
     d="m 173.17453,97.431958 -1.30578,2.527801 h 6.52887 v -0.63195 z"
     style="fill:#e69a07;stroke:none;stroke-width:0.642333" />
  <path
     id="path724"
     d="m 192.10826,98.695859 c -1.34234,-0.523887 -2.44703,-0.943502 -3.92059,-0.9138 -11.69713,0.235717 -0.34538,9.124731 3.92059,0.9138 z"
     style="fill:#f7b12b;stroke:none;stroke-width:0.642333" />
  <path
     id="path726"
     d="m 147.05904,98.063909 0.65288,0.63195 z"
     style="fill:#a79088;stroke:none;stroke-width:0.642333" />
  <path
     id="path728"
     d="m 171.86875,122.70996 v -1.2639 l -5.87598,-3.15975 v -1.2639 l 8.48753,3.15975 3.26444,-6.95145 -7.83465,-4.42365 8.48753,1.89585 -0.65288,-8.21535 -11.75197,0.63195 2.61155,-2.5278 c -2.46831,-4.052065 -6.66807,1.11602 -8.11376,3.7917 -3.99012,7.38434 1.37661,20.98201 11.37819,18.32655 z"
     style="fill:#d7a55f;stroke:none;stroke-width:0.642333" />
  <path
     id="path730"
     d="m 228.66994,98.063909 v 2.527801 l 2.61155,-2.527801 z"
     style="fill:#a47451;stroke:none;stroke-width:0.642333" />
  <path
     id="path732"
     d="m 201.24868,98.695859 c -6.45967,3.277921 -12.95067,6.917321 -20.23951,5.055601 0,6.24872 -0.97476,21.17791 -8.48753,23.38215 l -7.83465,2.5278 v 17.6946 l -3.91732,-2.5278 c 4.66977,7.32999 12.51911,2.17518 17.62795,-1.2639 -3.94017,3.7797 -6.79655,5.67176 -12.40485,5.68755 4.6022,10.29258 19.14918,7.58341 28.72703,7.58341 v -9.47926 l -14.36351,-1.2639 c 1.94625,-4.06344 14.73631,-18.56543 3.90753,-21.28534 -1.6381,-0.4114 -3.53539,-0.20096 -5.21331,-0.20096 v -2.5278 c 9.70191,0.0259 11.27406,5.0733 11.09908,13.27095 l 3.91733,-0.63195 v 0.63195 c -5.10819,1.15078 -7.18372,4.27767 -9.14042,8.8473 3.08881,0.23572 8.10167,1.89017 10.98809,0.55802 10.6166,-4.90078 8.83356,-20.95357 5.98697,-29.62772 l 0.65289,-0.63195 c 6.0601,4.86981 3.40481,14.89001 3.26444,21.4863 1.82416,-0.73622 4.58,-1.52679 5.48164,-3.40621 1.00936,-2.10566 -0.0862,-5.1327 -0.24222,-7.33694 -0.58825,-8.28739 -4.28033,-20.08211 -9.80963,-26.541901 z"
     style="fill:#f7b12b;stroke:none;stroke-width:0.642333" />
  <path
     id="path734"
     d="m 275.02493,99.327809 v 5.687551 h 0.65289 z"
     style="fill:#987c71;stroke:none;stroke-width:0.642333" />
  <path
     id="path738"
     d="m 194.7198,99.959759 v 0.631951 h 3.26444 z"
     style="fill:#8b5c38;stroke:none;stroke-width:0.642333" />
  <path
     id="path740"
     d="m 241.72768,99.959759 v 9.479251 h 0.65289 z"
     style="fill:#a77948;stroke:none;stroke-width:0.642333" />
  <path
     id="path742"
     d="m 133.56601,102.27712 0.21768,0.42088 z"
     style="fill:#a1887e;stroke:none;stroke-width:0.642333" />
  <path
     id="path744"
     d="m 143.7946,101.85561 v 5.68755 h 0.65289 z"
     style="fill:#94532a;stroke:none;stroke-width:0.642333" />
  <path
     id="path746"
     d="m 221.48818,103.75146 v 1.2639 l 2.61155,0.63195 v -2.5278 l -2.61155,0.63195 m 28.72704,0 v 2.5278 h 2.61155 z"
     style="fill:#a96737;stroke:none;stroke-width:0.642333" />
  <path
     id="path748"
     d="m 183.62072,104.38341 v 0.63195 h 3.91732 z"
     style="fill:#a47451;stroke:none;stroke-width:0.642333" />
  <path
     id="path750"
     d="m 209.73621,104.38341 c 0.88662,10.50617 6.7835,13.1117 15.5583,16.80292 2.31122,0.97194 3.70971,3.28804 5.98763,4.39458 4.19741,2.0393 8.26882,-0.0272 12.40421,-0.9751 5.28381,9.32316 20.1037,2.53728 24.80971,-3.7917 -5.5293,2.38119 -10.32868,7.14104 -16.97507,5.28437 -2.95627,-0.82596 -4.95933,-3.43212 -7.83464,-4.21637 -3.81025,-1.03956 -8.15391,2.89433 -9.79331,-2.3319 h -0.65289 v 1.89585 l -5.87598,-5.0556 c -10.37177,1.26769 -12.74436,-4.53298 -17.62796,-12.00705 z"
     style="fill:#c3894b;stroke:none;stroke-width:0.642333" />
  <path
     id="path752"
     d="m 239.11614,104.38341 -5.2231,7.5834 6.52887,1.89585 z"
     style="fill:#a96737;stroke:none;stroke-width:0.642333" />
  <path
     id="path754"
     d="m 134.00129,105.64731 v 7.5834 h 0.65289 z"
     style="fill:#8f6f64;stroke:none;stroke-width:0.642333" />
  <path
     id="path756"
     d="m 158.15812,106.91121 c 0.45937,8.48077 -0.99206,19.99932 11.75197,17.06265 v -0.63195 c -4.71476,-1.09706 -8.63822,-4.18793 -10.02959,-8.8473 -0.75258,-2.52022 0.42745,-5.76528 -1.72238,-7.5834 z"
     style="fill:#c3894b;stroke:none;stroke-width:0.642333" />
  <path
     id="path758"
     d="m 258.70275,106.91121 v 2.5278 l 2.61155,-0.63195 v -1.2639 z"
     style="fill:#a96737;stroke:none;stroke-width:0.642333" />
  <path
     id="path760"
     d="m 143.7946,107.54316 v 3.7917 h 0.65289 z"
     style="fill:#c58627;stroke:none;stroke-width:0.642333" />
  <path
     id="path762"
     d="m 274.37205,108.17511 v 1.89585 h 0.65288 z"
     style="fill:#b19b93;stroke:none;stroke-width:0.642333" />
  <path
     id="path764"
     d="m 229.32283,115.12656 c 2.59196,5.2534 7.19481,5.06129 12.40485,4.42365 -0.35125,-7.30534 -7.10994,-8.15847 -12.40485,-4.42365 z"
     style="fill:#d7a55f;stroke:none;stroke-width:0.642333" />
  <path
     id="path766"
     d="m 251.52099,114.49461 h 2.61155 v -2.5278 z"
     style="fill:#a96737;stroke:none;stroke-width:0.642333" />
  <path
     id="path768"
     d="m 134.00129,113.23071 v 5.0556 h 0.65289 z"
     style="fill:#a79088;stroke:none;stroke-width:0.642333" />
  <path
     id="path772"
     d="m 136.61284,115.12656 v 3.7917 h 0.65289 z"
     style="fill:#94532a;stroke:none;stroke-width:0.642333" />
  <path
     id="path774"
     d="m 137.26573,117.65436 c 0.0515,5.93654 2.00397,15.50995 8.48753,17.6946 z"
     style="fill:#e69a07;stroke:none;stroke-width:0.642333" />
  <path
     id="path776"
     d="m 278.28937,118.28631 -0.65289,6.95145 h 0.65289 z"
     style="fill:#7d5c51;stroke:none;stroke-width:0.642333" />
  <path
     id="path778"
     d="m 177.74474,118.91826 c -2.3726,3.66973 -5.40787,6.70562 -9.79331,8.03461 -1.589,0.48155 -4.05815,-0.10174 -5.39187,0.8544 -5.41929,3.88649 -2.41085,16.54572 2.12743,19.54874 v -17.6946 c 3.04899,-0.008 6.00918,0.13524 7.83465,-2.5278 3.49229,-0.59087 6.44008,-4.81167 5.2231,-8.21535 z"
     style="fill:#e69a07;stroke:none;stroke-width:0.642333" />
  <path
     id="path780"
     d="m 134.87179,120.60367 0.21767,0.42088 z"
     style="fill:#a79088;stroke:none;stroke-width:0.642333" />
  <path
     id="path782"
     d="m 278.94226,121.44606 c -0.54517,6.69298 3.09207,15.13647 0.84679,21.48378 -3.52886,9.97533 -23.39295,10.40632 -32.18538,12.00957 v 5.68756 l 28.04869,-7.785 8.67817,-6.75238 -2.66835,-13.26843 z"
     style="fill:#613323;stroke:none;stroke-width:0.642333" />
  <path
     id="path784"
     d="m 205.81889,122.07801 v 10.1112 h 0.65288 l -0.65288,-10.1112 m -26.76838,1.89585 v 0.63195 h 4.57021 z"
     style="fill:#a36a26;stroke:none;stroke-width:0.642333" />
  <path
     id="path786"
     d="m 280.46544,125.02732 0.21807,0.42088 z"
     style="fill:#b19b93;stroke:none;stroke-width:0.642333" />
  <path
     id="path788"
     d="m 134.2189,125.65927 0.21767,0.42088 z"
     style="fill:#a1887e;stroke:none;stroke-width:0.642333" />
  <path
     id="path790"
     d="m 211.04198,125.23776 v 3.15975 h 0.65289 z"
     style="fill:#c58627;stroke:none;stroke-width:0.642333" />
  <path
     id="path792"
     d="m 164.68699,127.13361 v 0.63195 h 2.61155 z"
     style="fill:#b0731d;stroke:none;stroke-width:0.642333" />
  <path
     id="path794"
     d="m 133.56601,128.18707 0.21768,0.42088 z"
     style="fill:#b19b93;stroke:none;stroke-width:0.642333" />
  <path
     id="path796"
     d="m 190.14959,127.76556 v 3.7917 h 0.65289 z"
     style="fill:#a36a26;stroke:none;stroke-width:0.642333" />
  <path
     id="path798"
     d="m 281.11833,128.18707 0.21806,0.42088 z"
     style="fill:#b19b93;stroke:none;stroke-width:0.642333" />
  <path
     id="path800"
     d="m 135.95995,128.39751 c -0.59895,4.58733 -2.50832,13.55596 0.48464,17.56189 2.58472,3.4593 8.54316,4.77691 12.57311,5.82026 l -2.61155,-1.89585 v -0.63195 l 1.30577,-0.63195 c -3.63455,-6.18742 -5.29563,-15.99339 -11.75197,-20.2224 z"
     style="fill:#c3894b;stroke:none;stroke-width:0.642333" />
  <path
     id="path802"
     d="m 211.69487,129.66141 v 3.7917 h 0.65289 v -1.89585 l 3.26444,1.89585 v -1.89585 z"
     style="fill:#745144;stroke:none;stroke-width:0.642333" />
  <path
     id="path804"
     d="m 132.69552,130.92531 v 2.5278 h 0.65289 z"
     style="fill:#a79088;stroke:none;stroke-width:0.642333" />
  <path
     id="path806"
     d="m 197.33135,157.46722 c 2.53582,0 6.54063,0.99911 7.18176,-1.89586 h -0.65288 v 1.26391 h -0.65289 c -0.70512,-16.14823 14.27146,-22.07023 28.72704,-25.27801 -3.63136,-1.46107 -8.73955,0.32419 -12.40486,1.26453 -12.41204,3.18314 -24.84954,10.82278 -22.19817,24.64543 z"
     style="fill:#c3894b;stroke:none;stroke-width:0.642333" />
  <path
     id="path808"
     d="m 278.94226,130.92531 v 2.5278 h 0.65288 z"
     style="fill:#a77948;stroke:none;stroke-width:0.642333" />
  <path
     id="path810"
     d="m 281.77122,131.34682 0.21806,0.42088 z"
     style="fill:#d0c2bd;stroke:none;stroke-width:0.642333" />
  <path
     id="path812"
     d="m 281.5538,132.18921 v 2.5278 h 0.65289 z"
     style="fill:#7d5c51;stroke:none;stroke-width:0.642333" />
  <path
     id="path814"
     d="m 156.85235,134.71701 1.95866,-1.2639 z"
     style="fill:#a36a26;stroke:none;stroke-width:0.642333" />
  <path
     id="path818"
     d="m 189.49671,134.08506 v 2.5278 l 4.57021,-1.2639 v -0.63195 z"
     style="fill:#e4b151;stroke:none;stroke-width:0.642333" />
  <path
     id="path820"
     d="m 134.65418,135.34896 v 8.21535 h 0.65289 z"
     style="fill:#a96737;stroke:none;stroke-width:0.642333" />
  <path
     id="path822"
     d="m 157.50523,135.34896 v 6.95145 h 0.65289 z"
     style="fill:#a36a26;stroke:none;stroke-width:0.642333" />
  <path
     id="path824"
     d="m 279.59514,135.34896 v 8.21535 h 0.65289 z"
     style="fill:#a47451;stroke:none;stroke-width:0.642333" />
  <path
     id="path826"
     d="m 144.44749,135.98091 c 3.22781,4.34087 8.38953,6.9919 13.71063,8.21535 -1.30708,-3.94526 -9.61396,-7.91896 -13.71063,-8.21535 z"
     style="fill:#e69a07;stroke:none;stroke-width:0.642333" />
  <path
     id="path828"
     d="m 202.55445,135.98091 v 1.89585 h 0.65289 z"
     style="fill:#b0731d;stroke:none;stroke-width:0.642333" />
  <path
     id="path830"
     d="m 132.04263,137.24481 v 8.8473 h 0.65289 l -0.65289,-8.8473 m 150.16406,0.63195 v 2.5278 h 0.65289 z"
     style="fill:#c6b6b0;stroke:none;stroke-width:0.642333" />
  <path
     id="path832"
     d="m 144.44749,140.40456 1.95866,8.8473 v 0.63195 c 5.84817,2.67063 10.95701,4.36994 17.62795,4.42365 -4.95417,-7.04245 -11.44792,-10.63382 -19.58661,-13.9029 z"
     style="fill:#d7a55f;stroke:none;stroke-width:0.642333" />
  <path
     id="path836"
     d="m 164.68699,147.98796 v 0.63195 c 5.891,1.35743 10.17917,-0.24646 13.71063,-5.0556 -5.46597,2.45197 -7.27708,5.20664 -13.71063,4.42365 z"
     style="fill:#e4b151;stroke:none;stroke-width:0.642333" />
  <path
     id="path838"
     d="m 131.38974,146.09211 0.65289,0.63195 z"
     style="fill:#b19b93;stroke:none;stroke-width:0.642333" />
  <path
     id="path840"
     d="m 161.42256,146.72406 c 1.61145,3.27603 3.6405,5.61994 7.18176,6.95145 -1.82156,-3.33796 -3.42636,-5.60602 -7.18176,-6.95145 z"
     style="fill:#e69a07;stroke:none;stroke-width:0.642333" />
  <path
     id="path842"
     d="m 205.166,146.72406 -3.26444,18.95851 39.17324,-3.7917 0.65288,-5.68756 h -7.18176 l -1.95866,6.31951 h -0.65288 l 1.30577,-5.68755 -19.58662,0.63195 0.65289,-8.84731 c -3.70187,1.18933 -2.61155,5.69324 -2.61155,8.84731 h -5.2231 v -10.74316 z"
     style="fill:#613323;stroke:none;stroke-width:0.642333" />
  <path
     id="path844"
     d="m 194.06692,149.25186 c 0.004,5.9694 0.89968,9.30421 -2.61155,14.53486 5.79633,-2.76605 4.80264,-9.62903 2.61155,-14.53486 z"
     style="fill:#745144;stroke:none;stroke-width:0.642333" />
  <path
     id="path848"
     d="m 127.47242,150.51576 v 3.15975 h 0.65289 z"
     style="fill:#987c71;stroke:none;stroke-width:0.642333" />
  <path
     id="path850"
     d="m 143.14171,153.04356 3.26444,-1.89585 z"
     style="fill:#745144;stroke:none;stroke-width:0.642333" />
  <path
     id="path852"
     d="m 278.72484,150.7262 0.43483,0.21108 z"
     style="fill:#987c71;stroke:none;stroke-width:0.642333" />
  <path
     id="path854"
     d="m 211.04198,151.14771 v 6.31951 h 0.65289 z"
     style="fill:#8b5c38;stroke:none;stroke-width:0.642333" />
  <path
     id="path856"
     d="m 142.48883,153.04356 -0.65289,5.68756 h 0.65289 z"
     style="fill:#7d5c51;stroke:none;stroke-width:0.642333" />
  <path
     id="path858"
     d="m 244.99212,154.93941 v 0.63195 h 1.95866 v 5.05561 h 0.65289 v -5.68756 z"
     style="fill:#745144;stroke:none;stroke-width:0.642333" />
  <path
     id="path860"
     d="m 237.81036,155.57136 v 0.63195 h 3.91732 c -0.0392,2.26428 -1.49902,5.103 1.30578,5.68756 l -0.65289,-6.31951 z"
     style="fill:#7d5c51;stroke:none;stroke-width:0.642333" />
  <path
     id="path862"
     d="m 242.38057,155.57136 v 5.68756 c 4.16477,-0.22308 4.5565,-1.9679 4.57021,-5.68756 z"
     style="fill:#613323;stroke:none;stroke-width:0.642333" />
  <path
     id="path864"
     d="m 164.0341,165.05062 3.26444,-7.5834 h 3.26444 l 1.30577,6.3195 h 0.65289 l -1.30578,-7.58341 c -5.92952,0.0683 -5.35596,4.25808 -7.18176,8.84731 m 64.63584,-8.84731 v 0.63196 h 4.57021 l -1.30577,5.68755 h 0.65288 l 1.95866,-6.31951 z"
     style="fill:#745144;stroke:none;stroke-width:0.642333" />
  <path
     id="path866"
     d="m 130.73686,156.83527 0.65288,0.63195 z"
     style="fill:#b19b93;stroke:none;stroke-width:0.642333" />
  <path
     id="path868"
     d="m 180.35629,156.83527 v 0.63195 h 14.36351 z"
     style="fill:#c58627;stroke:none;stroke-width:0.642333" />
  <path
     id="path870"
     d="m 218.22374,156.83527 v 0.63195 h 5.2231 z"
     style="fill:#8b5c38;stroke:none;stroke-width:0.642333" />
  <path
     id="path872"
     d="m 263.05555,157.0457 0.43482,0.21108 z"
     style="fill:#c6b6b0;stroke:none;stroke-width:0.642333" />
  <path
     id="path874"
     d="m 203.20734,157.46722 -2.61155,8.21535 c 2.67096,-1.70816 3.82657,-5.33113 2.61155,-8.21535 z"
     style="fill:#745144;stroke:none;stroke-width:0.642333" />
  <path
     id="path876"
     d="m 258.48534,158.3096 0.43482,0.21108 z"
     style="fill:#d0c2bd;stroke:none;stroke-width:0.642333" />
  <path
     id="path878"
     d="m 252.60936,159.5735 0.43482,0.21108 z"
     style="fill:#b19b93;stroke:none;stroke-width:0.642333" />
  <path
     id="path880"
     d="m 137.70101,160.20545 0.43521,0.21108 z"
     style="fill:#8f6f64;stroke:none;stroke-width:0.642333" />
  <path
     id="path882"
     d="m 248.90944,159.99502 v 0.63195 h 1.95867 z"
     style="fill:#a1887e;stroke:none;stroke-width:0.642333" />
  <path
     id="path884"
     d="m 139.65967,160.8374 0.43522,0.21108 z"
     style="fill:#8f6f64;stroke:none;stroke-width:0.642333" />
  <path
     id="path886"
     d="m 246.08048,160.8374 0.43483,0.21108 z"
     style="fill:#a1887e;stroke:none;stroke-width:0.642333" />
  <path
     id="path888"
     d="m 243.46893,161.46935 0.43483,0.21108 z"
     style="fill:#c6b6b0;stroke:none;stroke-width:0.642333" />
  <path
     id="path890"
     d="m 144.22988,162.10131 0.43522,0.21107 z"
     style="fill:#a79088;stroke:none;stroke-width:0.642333" />
  <path
     id="path892"
     d="m 238.46325,161.89087 v 0.63195 h 1.95866 z"
     style="fill:#a1887e;stroke:none;stroke-width:0.642333" />
  <path
     id="path896"
     d="m 147.49432,162.73326 0.43521,0.21107 -0.43521,-0.21107 m 86.39872,-0.21044 v 0.63195 h 1.95866 z"
     style="fill:#8f6f64;stroke:none;stroke-width:0.642333" />
  <path
     id="path898"
     d="m 149.67059,163.15477 v 0.63195 h 1.95866 z"
     style="fill:#bca9a2;stroke:none;stroke-width:0.642333" />
  <path
     id="path900"
     d="m 182.31495,163.15477 v 0.63195 l 9.14042,0.63195 v -0.63195 z"
     style="fill:#7d5c51;stroke:none;stroke-width:0.642333" />
  <path
     id="path902"
     d="m 229.97571,163.15477 v 0.63195 h 1.95867 z"
     style="fill:#b19b93;stroke:none;stroke-width:0.642333" />
  <path
     id="path904"
     d="m 153.58791,163.78672 v 0.63195 h 1.95866 l -1.95866,-0.63195 m 70.51182,0 v 0.63195 h 2.61155 z"
     style="fill:#bca9a2;stroke:none;stroke-width:0.642333" />
  <path
     id="path906"
     d="m 158.15812,164.41867 v 0.63195 h 3.26444 z"
     style="fill:#a1887e;stroke:none;stroke-width:0.642333" />
  <path
     id="path908"
     d="m 218.22374,164.41867 v 0.63195 h 1.95867 z"
     style="fill:#987c71;stroke:none;stroke-width:0.642333" />
  <path
     id="path910"
     d="m 164.0341,165.05062 v 0.63195 h 2.61155 z"
     style="fill:#b19b93;stroke:none;stroke-width:0.642333" />
  <path
     id="path912"
     d="m 166.64565,165.05062 v 0.63195 h 3.26444 z"
     style="fill:#7d5c51;stroke:none;stroke-width:0.642333" />
  <path
     id="path914"
     d="m 208.43044,165.05062 v 0.63195 h 4.57021 z"
     style="fill:#8f6f64;stroke:none;stroke-width:0.642333" />
  <path
     id="path916"
     d="m 173.17453,165.68257 v 0.63195 h 5.22309 z"
     style="fill:#bca9a2;stroke:none;stroke-width:0.642333" />
  <path
     id="path918"
     d="m 178.39762,165.68257 v 0.63195 h 20.89239 z"
     style="fill:#745144;stroke:none;stroke-width:0.642333" />
  <path
     id="path920"
     d="m 199.29001,165.68257 v 0.63195 h 5.2231 z"
     style="fill:#b19b93;stroke:none;stroke-width:0.642333" />
</svg>
